<svg width="25" height="25" viewBox="0 0 25 25" fill="none" xmlns="http://www.w3.org/2000/svg">
<path d="M24.9918 12.5004C24.9918 18.8137 20.3134 24.033 14.2357 24.88C13.6675 24.9588 13.086 25 12.4959 25C11.8147 25 11.1457 24.9457 10.4942 24.8406C4.54444 23.8824 0 18.7218 0 12.5004C0 5.59682 5.59517 0 12.4968 0C19.3983 0 24.9935 5.59682 24.9935 12.5004H24.9918Z" fill="#212121"/>
<path d="M14.08 7.59183V10.1251H17.2085L16.7131 13.5376H14.08V21.3998C13.5521 21.4732 13.0119 21.5115 12.4637 21.5115C11.8308 21.5115 11.2093 21.461 10.6041 21.3632V13.5376H7.71887V10.1251H10.6041V7.02553C10.6041 5.10255 12.1603 3.54297 14.0808 3.54297V3.5446C14.0865 3.5446 14.0914 3.54297 14.0971 3.54297H17.2093V6.49427H15.1757C14.5713 6.49427 14.0808 6.98561 14.0808 7.59102L14.08 7.59183Z" fill="white"/>
</svg>
