<svg width="25" height="25" viewBox="0 0 25 25" fill="none" xmlns="http://www.w3.org/2000/svg">
<path d="M12.5248 0H12.4679C5.58205 0 0 5.5837 0 12.4715V12.5285C0 19.4163 5.58205 25 12.4679 25H12.5248C19.4106 25 24.9926 19.4163 24.9926 12.5285V12.4715C24.9926 5.5837 19.4106 0 12.5248 0Z" fill="#212121"/>
<path d="M16.363 5.08594H8.62956C6.49307 5.08594 4.75497 6.82454 4.75497 8.96167V16.0387C4.75497 18.1758 6.49307 19.9144 8.62956 19.9144H16.363C18.4995 19.9144 20.2376 18.1758 20.2376 16.0387V8.96167C20.2376 6.82454 18.4995 5.08594 16.363 5.08594ZM6.12181 8.96167C6.12181 7.57867 7.24697 6.45317 8.62956 6.45317H16.363C17.7456 6.45317 18.8707 7.57867 18.8707 8.96167V16.0387C18.8707 17.4217 17.7456 18.5472 16.363 18.5472H8.62956C7.24697 18.5472 6.12181 17.4217 6.12181 16.0387V8.96167Z" fill="white"/>
<path d="M12.4967 16.1047C14.4835 16.1047 16.1007 14.4878 16.1007 12.4996C16.1007 10.5114 14.4843 8.89453 12.4967 8.89453C10.5091 8.89453 8.89267 10.5114 8.89267 12.4996C8.89267 14.4878 10.5091 16.1047 12.4967 16.1047ZM12.4967 10.2626C13.7304 10.2626 14.7339 11.2664 14.7339 12.5005C14.7339 13.7346 13.7304 14.7383 12.4967 14.7383C11.263 14.7383 10.2595 13.7346 10.2595 12.5005C10.2595 11.2664 11.263 10.2626 12.4967 10.2626Z" fill="white"/>
<path d="M16.434 9.47687C16.969 9.47687 17.4051 9.04156 17.4051 8.50552C17.4051 7.96949 16.9699 7.53418 16.434 7.53418C15.8982 7.53418 15.463 7.96949 15.463 8.50552C15.463 9.04156 15.8982 9.47687 16.434 9.47687Z" fill="white"/>
</svg>
