<svg width="25" height="25" viewBox="0 0 25 25" fill="none" xmlns="http://www.w3.org/2000/svg">
<path d="M12.5248 0H12.4679C5.58206 0 0 5.5837 0 12.4715V12.5285C0 19.4163 5.58206 25 12.4679 25H12.5248C19.4106 25 24.9926 19.4163 24.9926 12.5285V12.4715C24.9926 5.5837 19.4106 0 12.5248 0Z" fill="#212121"/>
<path d="M5.95985 8.30943C5.63062 8.00375 5.46689 7.62538 5.46689 7.17518C5.46689 6.72498 5.63149 6.32996 5.95985 6.02341C6.28908 5.71773 6.71288 5.56445 7.23212 5.56445C7.75136 5.56445 8.15852 5.71773 8.48688 6.02341C8.81611 6.32909 8.97984 6.7136 8.97984 7.17518C8.97984 7.63677 8.81523 8.00375 8.48688 8.30943C8.15765 8.61511 7.73997 8.76839 7.23212 8.76839C6.72426 8.76839 6.28908 8.61511 5.95985 8.30943ZM8.70315 10.0629V19.4347H5.7427V10.0629H8.70315Z" fill="#FEFFFC"/>
<path d="M18.5583 10.9885C19.2036 11.6892 19.5258 12.651 19.5258 13.8754V19.269H16.7142V14.2555C16.7142 13.6381 16.554 13.1581 16.2344 12.8165C15.9148 12.4749 15.484 12.3032 14.9446 12.3032C14.4052 12.3032 13.9744 12.474 13.6548 12.8165C13.3352 13.1581 13.175 13.6381 13.175 14.2555V19.269H10.3468V10.0365H13.175V11.2609C13.4613 10.8528 13.8475 10.5305 14.3326 10.2931C14.8177 10.0557 15.3632 9.9375 15.97 9.9375C17.0505 9.9375 17.9138 10.2878 18.5583 10.9877V10.9885Z" fill="#FEFFFC"/>
</svg>
