<svg width="12" height="17" viewBox="0 0 12 17" fill="none" xmlns="http://www.w3.org/2000/svg">
<path d="M6 0C2.6916 0 0 2.68109 0 5.97656C0 7.09 0.309633 8.1766 0.895634 9.1193L5.65847 16.7646C5.7497 16.911 5.91043 17 6.0833 17C6.08463 17 6.08593 17 6.08727 17C6.26163 16.9986 6.4227 16.9069 6.51227 16.7579L11.1537 9.03856C11.7074 8.11577 12 7.05696 12 5.97656C12 2.68109 9.3084 0 6 0ZM10.2955 8.52716L6.07573 15.5452L1.74557 8.5945C1.2578 7.80984 0.993333 6.90459 0.993333 5.97656C0.993333 3.23033 3.243 0.989453 6 0.989453C8.757 0.989453 11.0033 3.23033 11.0033 5.97656C11.0033 6.87706 10.7563 7.75917 10.2955 8.52716Z" fill="white"/>
<path d="M6 2.98828C4.3458 2.98828 3 4.32882 3 5.97656C3 7.61378 4.3239 8.96484 6 8.96484C7.69677 8.96484 9 7.59578 9 5.97656C9 4.32882 7.6542 2.98828 6 2.98828ZM6 7.97539C4.89143 7.97539 3.99333 7.07781 3.99333 5.97656C3.99333 4.87807 4.8972 3.97773 6 3.97773C7.1028 3.97773 8.00333 4.87807 8.00333 5.97656C8.00333 7.06174 7.12613 7.97539 6 7.97539Z" fill="white"/>
</svg>
