<svg width="25" height="25" viewBox="0 0 25 25" fill="none" xmlns="http://www.w3.org/2000/svg">
<path d="M14.5893 15.3169C13.9673 15.7316 13.2449 15.9508 12.5 15.9508C11.7552 15.9508 11.0327 15.7316 10.4107 15.3169L0.166455 8.48721C0.109619 8.44932 0.054248 8.40981 0 8.36919V19.5604C0 20.8436 1.04126 21.8619 2.30142 21.8619H22.6985C23.9816 21.8619 25 20.8206 25 19.5604V8.36914C24.9456 8.40986 24.8901 8.44946 24.8332 8.4874L14.5893 15.3169Z" fill="white"/>
<path d="M0.979004 7.26816L11.2233 14.0979C11.6111 14.3565 12.0555 14.4857 12.5 14.4857C12.9444 14.4857 13.3889 14.3564 13.7767 14.0979L24.021 7.26816C24.634 6.85972 25 6.17612 25 5.43833C25 4.16973 23.9679 3.1377 22.6994 3.1377H2.30063C1.03208 3.13774 0 4.16978 0 5.43955C0 6.17612 0.366016 6.85972 0.979004 7.26816Z" fill="white"/>
</svg>
