<svg width="45" height="17" viewBox="0 0 45 17" fill="none" xmlns="http://www.w3.org/2000/svg">
<path d="M33.095 9.75582C33.0104 9.90793 32.9258 10.033 32.8717 10.1682C32.7363 10.4995 32.7905 10.868 33.0917 11.064C33.4775 11.3108 33.9073 11.4866 34.3303 11.6691C34.4894 11.7367 34.618 11.6353 34.6552 11.4629C34.8413 10.6111 34.821 10.0398 33.8802 9.6544C33.6128 9.54285 33.4809 9.38397 33.3996 9.11016C33.068 7.99125 32.7566 6.87234 32.7701 5.69258C32.7701 5.54723 32.7803 5.39511 32.8108 5.25313C32.8751 4.96242 33.068 4.76973 33.3658 4.82382C33.7956 4.90157 34.2423 4.98946 34.6383 5.16862C35.305 5.46948 35.8329 5.97653 36.3237 6.51064C36.7772 7.00079 37.2103 7.50447 37.6571 8.00139C37.8737 8.24478 37.9955 8.47803 37.921 8.84649C37.7654 9.6206 38.6453 10.4116 39.4169 10.246C39.4981 10.2291 39.5895 10.1682 39.6335 10.1006C39.8806 9.71187 39.7452 8.97494 39.3831 8.68085C39.312 8.62338 39.2342 8.56254 39.1496 8.53549C38.6318 8.35633 38.4693 7.94392 38.3576 7.45039C38.141 6.47683 37.8331 5.52018 37.85 4.50945C37.85 4.45536 37.85 4.39789 37.85 4.34381C37.8804 3.53927 38.2933 3.21475 39.048 3.4649C39.5184 3.6204 39.9618 3.86717 40.3984 4.10042C41.0684 4.45536 41.7148 4.861 42.3917 5.19904C42.6726 5.33764 42.7267 5.56075 42.8181 5.80076C43.0753 6.48698 43.6642 6.7067 44.3478 6.35176C44.0974 5.90893 43.7082 5.58779 43.3461 5.25313C42.0499 4.05985 40.8552 2.76854 39.7452 1.40286C39.3865 0.960032 39.0717 0.480015 38.7265 0C36.899 0.405647 35.0309 0.493536 33.1695 0.642273C31.9715 0.736925 30.7666 0.757208 29.5652 0.814674C27.6226 0.905945 25.6834 1.02426 23.7408 1.08511C22.6139 1.11891 21.4801 1.06482 20.3498 1.04454C19.8692 1.0344 19.3886 1.00736 18.9047 0.987074C17.0196 0.912704 15.1278 0.875521 13.2461 0.753828C11.1073 0.615231 8.97177 0.402266 6.8329 0.206203C6.44709 0.1724 6.06805 0.0777473 5.65516 0.00675964C4.11192 2.39332 2.02381 4.30662 0 6.30443C0.700549 6.69994 1.35372 6.5005 1.56016 5.8278C1.68538 5.42553 1.9189 5.24299 2.27763 5.07397C2.79543 4.83396 3.276 4.50606 3.77688 4.22549C4.13223 4.02605 4.48758 3.82323 4.85308 3.65082C5.08321 3.54265 5.33704 3.46152 5.58747 3.41082C6.08497 3.30941 6.38955 3.48519 6.49108 3.97534C6.56215 4.31338 6.60615 4.68523 6.54523 5.01988C6.36248 6.02048 6.12558 7.00756 5.89883 7.99801C5.87514 8.10618 5.77361 8.21436 5.68224 8.28872C5.56717 8.38 5.42164 8.4307 5.29642 8.50845C4.69064 8.87353 4.53157 9.28594 4.71433 9.96202C4.77186 10.1784 4.90385 10.2764 5.11367 10.2561C5.57055 10.2122 5.97328 10.0431 6.29818 9.71187C6.56554 9.43806 6.50462 9.08988 6.47078 8.76536C6.4437 8.50845 6.47755 8.30225 6.66707 8.10618C7.39469 7.34559 8.09186 6.5512 8.83978 5.80752C9.34404 5.30722 9.96676 4.96918 10.6842 4.84748C11.3746 4.72917 11.5912 4.92185 11.6149 5.62836C11.6589 6.88924 11.334 8.08252 10.9414 9.26228C10.8974 9.39749 10.7485 9.50905 10.6267 9.6037C10.5285 9.68145 10.3898 9.70849 10.2781 9.77272C9.71293 10.0939 9.45911 10.9457 9.75354 11.5204C9.84831 11.7063 10.0074 11.7232 10.18 11.6522C10.4879 11.5238 10.8027 11.4054 11.0903 11.2398C11.6352 10.9254 11.73 10.5401 11.4355 9.97892C11.4017 9.91469 11.3577 9.85723 11.3036 9.77272C11.7232 9.00875 12.2512 8.31577 12.8502 7.69378C13.4797 7.04136 14.1464 6.42275 14.8266 5.82442C15.1413 5.54723 15.517 5.32074 15.896 5.13482C16.7929 4.69199 17.4867 4.82382 18.1331 5.58103C18.4783 5.98668 18.7761 6.44303 19.0231 6.91628C19.6966 8.20083 20.123 9.58342 20.4919 10.9795C20.9522 12.7137 21.3786 14.4512 21.8287 16.1887C21.8998 16.4659 22.025 16.7296 22.1231 17C22.1638 17 22.2078 17 22.2484 17C22.3364 16.7668 22.4447 16.5403 22.509 16.3036C22.9523 14.6033 23.372 12.8996 23.8221 11.2026C24.1774 9.86061 24.5869 8.53211 25.1758 7.27123C25.4736 6.63233 25.8087 6.01372 26.3129 5.50328C26.9661 4.8441 27.5956 4.68861 28.4247 5.1213C29.0068 5.42891 29.5686 5.81428 30.0593 6.25373C31.21 7.27799 32.2862 8.37661 33.0747 9.76934L33.095 9.75582ZM33.5282 9.99244C34.3032 10.2426 34.4454 10.4927 34.2085 11.1654C34.0223 11.0945 33.826 11.037 33.6467 10.9457C33.1492 10.6888 33.1187 10.4725 33.5248 9.99244H33.5282ZM10.8771 9.9992C11.3103 10.4522 11.2799 10.6922 10.7485 10.9592C10.5759 11.0471 10.3864 11.1046 10.2037 11.1756C9.95999 10.5265 10.1326 10.2426 10.8771 9.9992ZM39.2511 9.7761C38.3847 9.63412 38.2053 9.38059 38.4287 8.66733C39.2409 8.931 39.3932 9.13044 39.2511 9.7761ZM6.00036 8.66395C6.2068 9.38397 6.00713 9.66116 5.20166 9.76596C4.98169 9.18453 5.16444 8.931 6.00036 8.66395ZM0.605789 6.02048C0.775004 5.87174 0.947603 5.72639 1.17435 5.53032C1.16081 5.94273 0.957756 6.04752 0.605789 6.02048ZM43.786 5.99344C43.4837 5.95738 43.3156 5.8109 43.2818 5.55399C43.4611 5.71286 43.6236 5.85146 43.786 5.99344Z" fill="#1B1B1B"/>
</svg>
