<svg width="25" height="25" viewBox="0 0 25 25" fill="none" xmlns="http://www.w3.org/2000/svg">
<path d="M24.9982 12.5037C24.9982 18.8186 20.3186 24.0393 14.2394 24.8865C13.671 24.9653 13.0894 25.0065 12.4991 25.0065C11.8177 25.0065 11.1486 24.9522 10.497 24.847C4.54561 23.8886 0 18.7266 0 12.5037C0 5.59827 5.59662 0 12.5 0C19.4034 0 25 5.59827 25 12.5037H24.9982Z" fill="#212121"/>
<path d="M5.07009 5.51562L10.8349 13.2253L5.03418 19.4938H6.34006L11.4191 14.0059L15.5224 19.4938H19.9655L13.8767 11.3504L19.2762 5.51562H17.9703L13.2934 10.5698L9.51411 5.51562H5.07096H5.07009ZM6.98993 6.47758H9.03064L18.0439 18.5318H16.0032L6.98993 6.47758Z" fill="white"/>
</svg>
