<svg width="25" height="25" viewBox="0 0 25 25" fill="none" xmlns="http://www.w3.org/2000/svg">
<path d="M24.9926 12.5C24.9926 5.59644 19.3979 0 12.4963 0C5.5948 0 0 5.59644 0 12.5C0 19.4036 5.5948 25 12.4963 25C19.3979 25 24.9926 19.4036 24.9926 12.5Z" fill="#212121"/>
<path d="M20.365 9.90951C20.2667 8.96 20.0551 7.91036 19.2762 7.35874C18.6729 6.93098 17.88 6.91517 17.1398 6.91605C15.575 6.91605 14.0093 6.91868 12.4445 6.91956C10.9395 6.92132 9.43439 6.9222 7.92932 6.92395C7.3006 6.92395 6.68943 6.87564 6.10549 7.14793C5.60409 7.38158 5.21158 7.82603 4.97537 8.32055C4.64784 9.00831 4.57935 9.78742 4.53983 10.5481C4.46695 11.9333 4.47485 13.322 4.56179 14.7063C4.62589 15.7164 4.78833 16.8328 5.56897 17.4766C6.26092 18.0467 7.23737 18.0748 8.13479 18.0757C10.9834 18.0783 13.8328 18.0809 16.6823 18.0827C17.0476 18.0836 17.4287 18.0765 17.801 18.0361C18.5333 17.9571 19.2314 17.7472 19.7021 17.2043C20.1771 16.6571 20.2992 15.8956 20.3712 15.1744C20.5468 13.4247 20.5451 11.6583 20.365 9.90951ZM10.7972 14.9522V10.0465L15.0437 12.4989L10.7972 14.9522Z" fill="white"/>
</svg>
